<?xml version="1.0" encoding="utf-8"?>
<!-- Generator: Adobe Illustrator 19.1.0, SVG Export Plug-In . SVG Version: 6.00 Build 0)  -->
<!DOCTYPE svg PUBLIC "-//W3C//DTD SVG 1.1//EN" "http://www.w3.org/Graphics/SVG/1.1/DTD/svg11.dtd">
<svg version="1.1" id="Layer_1" xmlns="http://www.w3.org/2000/svg" xmlns:xlink="http://www.w3.org/1999/xlink" x="0px" y="0px"
	 width="175.8px" height="111.2px" viewBox="0 0 175.8 111.2" style="enable-background:new 0 0 175.8 111.2;" xml:space="preserve"
	>
<style type="text/css">
	.st0{fill:#FFFFFF;}
</style>
<rect x="-322.3" y="251.7" transform="matrix(0.4052 0.9142 -0.9142 0.4052 73.2335 437.0273)" width="46.2" height="46.2"/>
<ellipse cx="-347.4" cy="300.6" rx="85.1" ry="41.9"/>
<ellipse class="st0" cx="-320.9" cy="300.6" rx="8.5" ry="15.6"/>
<rect x="-414.8" y="246.8" transform="matrix(0.906 0.4233 -0.4233 0.906 77.4134 191.1847)" width="46.2" height="46.2"/>
<ellipse class="st0" cx="-379.1" cy="300" rx="8.5" ry="15.6"/>
<path d="M163.4,43.1L148.5,9.6l-36.1,16c-7.6-1.1-15.6-1.7-23.9-1.7c-4.7,0-9.3,0.2-13.8,0.6L75,24L33.2,4.4L16.1,41
	c-1.3,2.9-3.2,5.5-5.3,7.8c-4.7,5.2-7.3,11-7.3,17c0,23.1,38.1,41.9,85.1,41.9c47,0,85.1-18.8,85.1-41.9c0-5.2-1.9-10.2-5.4-14.8
	C166.3,48.6,164.6,45.9,163.4,43.1z M56.8,80.8c-4.7,0-8.4-7-8.4-15.6c0-0.9,0-1.8,0.1-2.7c0.7-7.3,4.1-12.9,8.3-12.9
	c1.8,0,3.5,1,4.8,2.8c2.2,2.8,3.6,7.5,3.6,12.8C65.3,73.9,61.5,80.8,56.8,80.8z M123.5,67.2c-0.4,8-4,14.2-8.4,14.2
	c-4.7,0-8.4-7-8.4-15.6c0-8.6,3.8-15.6,8.4-15.6c0.3,0,0.6,0,1,0.1c4.2,0.9,7.5,7.5,7.5,15.5C123.6,66.3,123.5,66.7,123.5,67.2z"/>
</svg>
